<svg width="4" height="15" viewBox="0 0 4 15" fill="none" xmlns="http://www.w3.org/2000/svg">
<path d="M0.40576 8.48042C0.464767 9.09501 0.564811 9.55176 0.702492 9.8531C0.841874 10.1535 1.08931 10.3033 1.44651 10.3033C1.51328 10.3033 1.57302 10.2929 1.63227 10.2807C1.69297 10.2929 1.75247 10.3033 1.81973 10.3033C2.17595 10.3033 2.42412 10.1535 2.56277 9.8531C2.70118 9.55176 2.79953 9.09501 2.85975 8.48042L3.17688 3.73513C3.23588 2.81021 3.26599 2.14657 3.26599 1.74373C3.26599 1.19543 3.12297 0.767569 2.83595 0.460396C2.54796 0.153222 2.16964 0 1.70099 0C1.67598 0 1.65728 0.00558502 1.63275 0.00655632C1.60944 0.00558502 1.59026 0 1.56598 0C1.09635 0 0.718761 0.153222 0.431257 0.460396C0.143995 0.768055 0 1.19616 0 1.74397C0 2.14681 0.0293818 2.81045 0.0893596 3.73537L0.40576 8.48042ZM1.64465 12.0378C1.1896 12.0378 0.803022 12.1813 0.482007 12.4683C0.161235 12.7556 0.000485383 13.1043 0.000485383 13.5137C0.000485383 13.9758 0.163178 14.3395 0.486135 14.6037C0.810549 14.8679 1.18887 15 1.62134 15C2.06158 15 2.44549 14.8699 2.77379 14.6088C3.1016 14.3485 3.26551 13.9828 3.26551 13.5142C3.26551 13.1048 3.10864 12.7561 2.79491 12.4688C2.48118 12.1813 2.09776 12.0378 1.64392 12.0378" fill="#D46B08"/>
</svg>
